<svg xmlns="http://www.w3.org/2000/svg" viewBox="0 0 1098.3 240.12"><defs><style>.cls-1{fill:#272525;}</style></defs><title>Asset4</title><g id="Layer_2" data-name="Layer 2"><g id="Object"><path class="cls-1" d="M15.52,214.59c-2.32-38.84-4.07-77.67-5.69-116.51q-.6-14.23-1.1-28.48c-.32-9.22-3.84-19.33-.89-28.49,2.81-8.73,15.06-9.32,33.54-10.78q15.85-1.24,31.87-2.17c26.36-1.53,52.93-2.45,79.5-3.22,200-5.78,400.46-9.74,600.81-13.13Q921.82,9,1090.17,7.05l-4-1.55a674.52,674.52,0,0,1-10.09,211.73l3.87-1.48q-409.62,5.06-819.27,9.8-115.09,1.38-230.2,2.78l3.91,1.49c-7.38-40.48-12.53-81-15.81-121.59q-2.44-30.42-3.47-60.86c-.15-4.75-.29-9.49-.39-14.24-.06-2.56-2.08-5,3.42-6.92,2.91-1,15.13-1.26,19.06-1.57q38.13-3,76.66-5.24C317.25,7.52,525.69,8.78,730.91,6.66q178.94-1.85,357.86-3.75L1085,1.46a665.86,665.86,0,0,1-18.26,117q-7.14,29.17-16.86,58.25c-3.18,9.51-3.58,20.66-10.69,29.88-2.91,3.78-1.3,3.46-11.49,4.26-4.1.32-9.2.23-13.46.34l-47.08,1.21q-306,7.84-612.11,15.55-174.9,4.44-349.78,8.94l4.11,2.06q10.54-21.21,21.1-42.44c.9-1.82-6.34-2.6-7.3-.77q-11,21.18-22,42.35c-.51,1,1.16,2.13,4.1,2.06,269.13-6.45,538.12-13.87,807.18-20.73l228.7-5.83c1.59,0,3.62-.45,3.88-1.13a736,736,0,0,0,47.58-211c.06-.78-1.79-1.48-3.81-1.46Q872.7,2,656.63,4.47C516.23,5.94,375.32,6.35,235.33,11,159.51,13.56,84,17.56,9.76,24c-1.6.14-2.79.78-2.78,1.4,1.2,68.22,8.08,136.38,19.55,204.46.14.79,1.69,1.53,3.92,1.5q409.65-4.69,819.27-9.88,115.1-1.38,230.2-2.72c2.22,0,3.7-.66,3.88-1.49A664.67,664.67,0,0,0,1094.19,5.5c-.09-.81-1.77-1.56-4-1.54Q773.67,7.62,457.52,14.5C352.69,16.79,247.72,19,143.05,22.22c-21.88.68-43.74,1.5-65.48,2.69-12.82.7-25.59,1.52-38.26,2.54-10,.8-22.69,1.33-30.75,4C-2.45,35.16.23,41.29.42,46.29Q1,61.83,1.73,77.37c2.11,45.75,5.37,91.48,9.48,137.22.1,1,4.37,1.06,4.31,0Z"/></g></g></svg>