<svg xmlns="http://www.w3.org/2000/svg" viewBox="0 0 1098.3 364.12"><defs><style>.cls-1{fill:#272525;}</style></defs><title>Asset3</title><g id="Layer_2" data-name="Layer 2"><g id="Object"><path class="cls-1" d="M15.52,325.4c-2.32-58.89-4.07-117.78-5.69-176.67q-.6-21.6-1.1-43.19c-.32-14-3.84-29.31-.89-43.2C10.65,49.1,22.9,48.2,41.38,46q15.85-1.89,31.87-3.28c26.36-2.33,52.93-3.72,79.5-4.89,200-8.77,400.46-14.77,600.81-19.9q168.26-4.32,336.61-7.23l-4-2.34a1542.73,1542.73,0,0,1-10.09,321.07l3.87-2.25Q670.3,334.82,260.65,342q-115.09,2.09-230.2,4.2l3.91,2.28C27,287.11,21.83,225.64,18.55,164.12Q16.11,118,15.08,71.84q-.22-10.8-.39-21.61c-.06-3.87-2.08-7.6,3.42-10.49,2.91-1.54,15.13-1.9,19.06-2.37q38.13-4.59,76.66-8c203.42-18,411.86-16.09,617.08-19.31q178.94-2.8,357.86-5.68L1085,2.21a1498.71,1498.71,0,0,1-18.26,177.38q-7.14,44.25-16.86,88.33c-3.18,14.42-3.58,31.32-10.69,45.31-2.91,5.74-1.3,5.24-11.49,6.45-4.1.49-9.2.36-13.46.53L967.13,322q-306,11.88-612.11,23.58c-116.6,4.48-233.22,8.75-349.78,13.55l4.11,3.13Q19.89,330.13,30.45,298c.9-2.76-6.34-3.95-7.3-1.17q-11,32.1-22,64.21c-.51,1.47,1.16,3.23,4.1,3.13,269.13-9.78,538.12-21,807.18-31.44l228.7-8.84c1.59-.06,3.62-.67,3.88-1.72,27-106,42.26-212.8,47.58-319.91.06-1.17-1.79-2.24-3.81-2.21Q872.7,3.1,656.63,6.78C516.23,9,375.32,9.62,235.33,16.71,159.51,20.56,84,26.63,9.76,36.33,8.16,36.54,7,37.52,7,38.45c1.2,103.45,8.08,206.82,19.55,310.06.14,1.2,1.69,2.31,3.92,2.27q409.65-7.12,819.27-15,115.1-2.12,230.2-4.13c2.22,0,3.7-1,3.88-2.25A1519.86,1519.86,0,0,0,1094.19,8.35c-.09-1.24-1.77-2.38-4-2.34q-316.5,5.55-632.65,16c-104.83,3.47-209.8,6.81-314.47,11.7-21.88,1-43.74,2.28-65.48,4.08C64.75,38.83,52,40.08,39.31,41.62c-10,1.21-22.69,2-30.75,6.11C-2.45,53.32.23,62.61.42,70.2Q1,93.76,1.73,117.32,4.89,221.39,11.21,325.4c.1,1.6,4.37,1.61,4.31,0Z"/></g></g></svg>