<svg xmlns="http://www.w3.org/2000/svg" viewBox="0 0 1098.3 184.12"><defs><style>.cls-1{fill:#272525;}</style></defs><title>Asset5</title><g id="Layer_2" data-name="Layer 2"><g id="Object"><path class="cls-1" d="M15.52,164.54C13.2,134.77,11.45,105,9.83,75.21q-.6-10.92-1.1-21.84c-.32-7.07-3.84-14.83-.89-21.84,2.81-6.7,15.06-7.16,33.54-8.27q15.85-1,31.87-1.66c26.36-1.18,52.93-1.89,79.5-2.47q300-6.66,600.81-10.07Q921.82,6.87,1090.17,5.4l-4-1.18q11.76,81.2-10.09,162.35l3.87-1.13Q670.3,169.31,260.65,173,145.56,174,30.45,175.08l3.91,1.15A736.72,736.72,0,0,1,18.55,83q-2.44-23.32-3.47-46.67c-.15-3.64-.29-7.28-.39-10.92-.06-2-2.08-3.84,3.42-5.31,2.91-.77,15.13-1,19.06-1.2q38.13-2.31,76.66-4c203.42-9.1,411.86-8.14,617.08-9.76q178.94-1.43,357.86-2.88L1085,1.12c-2.44,29.94-8.73,59.87-18.26,89.69a469,469,0,0,1-16.86,44.67c-3.18,7.29-3.58,15.84-10.69,22.91-2.91,2.9-1.3,2.65-11.49,3.26-4.1.25-9.2.18-13.46.27l-47.08.92q-306,6-612.11,11.93-174.9,3.39-349.78,6.85l4.11,1.58,21.1-32.54c.9-1.39-6.34-2-7.3-.59l-22,32.47c-.51.74,1.16,1.63,4.1,1.58q403.7-7.41,807.18-15.9l228.7-4.47c1.59,0,3.62-.34,3.88-.86,27-53.62,42.26-107.61,47.58-161.77.06-.6-1.79-1.13-3.81-1.12Q872.7,1.58,656.63,3.43c-140.4,1.13-281.31,1.44-421.3,5C159.51,10.39,84,13.47,9.76,18.37,8.16,18.48,7,19,7,19.44,8.18,71.76,15.06,124,26.53,176.23c.14.6,1.69,1.17,3.92,1.15q409.65-3.6,819.27-7.58,115.1-1.06,230.2-2.09c2.22,0,3.7-.51,3.88-1.14q22.25-81,10.39-162.35c-.09-.62-1.77-1.2-4-1.18q-316.5,2.81-632.65,8.08C352.69,12.87,247.72,14.56,143.05,17c-21.88.52-43.74,1.15-65.48,2.06q-19.23.81-38.26,1.95c-10,.61-22.69,1-30.75,3.09C-2.45,27,.23,31.66.42,35.5Q1,47.41,1.73,59.32c2.11,35.09,5.37,70.15,9.48,105.22.1.81,4.37.82,4.31,0Z"/></g></g></svg>