<svg xmlns="http://www.w3.org/2000/svg" viewBox="0 0 1098.3 127.12"><defs><style>.cls-1{fill:#272525;}</style></defs><title>Asset6</title><g id="Layer_2" data-name="Layer 2"><g id="Object"><path class="cls-1" d="M15.52,113.6C13.2,93.05,11.45,72.49,9.83,51.92q-.6-7.53-1.1-15.07C8.41,32,4.89,26.61,7.84,21.77c2.81-4.63,15.06-4.94,33.54-5.71q15.85-.66,31.87-1.15c26.36-.81,52.93-1.3,79.5-1.71q300-4.59,600.81-6.95,168.26-1.5,336.61-2.52l-4-.82Q1097.9,59,1076.05,115l3.87-.79q-409.62,2.67-819.27,5.19-115.09.72-230.2,1.47l3.91.79A367.64,367.64,0,0,1,18.55,57.3q-2.44-16.11-3.47-32.22c-.15-2.51-.29-5-.39-7.54-.06-1.35-2.08-2.66,3.42-3.67,2.91-.53,15.13-.66,19.06-.83q38.13-1.59,76.66-2.77C317.25,4,525.69,4.65,730.91,3.53q178.94-1,357.86-2L1085,.77c-2.44,20.68-8.73,41.34-18.26,61.93a271.19,271.19,0,0,1-16.86,30.84c-3.18,5-3.58,10.93-10.69,15.82-2.91,2-1.3,1.82-11.49,2.25-4.1.17-9.2.12-13.46.18l-47.08.64q-306,4.16-612.11,8.23Q180.12,123,5.24,125.39l4.11,1.1L30.45,104c.9-1-6.34-1.38-7.3-.41L1.14,126c-.51.51,1.16,1.13,4.1,1.09q403.7-5.12,807.18-11l228.7-3.09c1.59,0,3.62-.24,3.88-.6,27-37,42.26-74.29,47.58-111.69.06-.41-1.79-.78-3.81-.77Q872.7,1.08,656.63,2.37c-140.4.78-281.31,1-421.3,3.47C159.51,7.18,84,9.3,9.76,12.68c-1.6.08-2.79.42-2.78.74,1.2,36.12,8.08,72.21,19.55,108.25.14.42,1.69.81,3.92.79Q440.1,120,849.72,117.23q115.1-.74,230.2-1.44c2.22,0,3.7-.35,3.88-.78Q1106,59.08,1094.19,2.91c-.09-.43-1.77-.83-4-.81Q773.67,4,457.52,7.68c-104.83,1.21-209.8,2.37-314.47,4.08q-32.82.54-65.48,1.43-19.23.56-38.26,1.34c-10,.42-22.69.71-30.75,2.14-11,1.95-8.33,5.19-8.14,7.84Q1,32.73,1.73,41C3.84,65.18,7.1,89.39,11.21,113.6c.1.56,4.37.57,4.31,0Z"/></g></g></svg>