<svg xmlns="http://www.w3.org/2000/svg" viewBox="0 0 706.3 251.12"><defs><style>.cls-1{fill:#272525;}</style></defs><title>Asset 2</title><g id="Layer_2" data-name="Layer 2"><g id="Object"><path class="cls-1" d="M10,224.42c-1.49-40.61-2.61-81.23-3.66-121.85q-.39-14.89-.7-29.78C5.41,63.15,3.15,52.57,5,43c1.81-9.14,9.69-9.76,21.57-11.28q10.2-1.3,20.49-2.27c16.95-1.6,34-2.56,51.13-3.37C226.84,20,355.76,15.9,484.6,12.36q108.21-3,216.47-5l-2.59-1.61A1140.37,1140.37,0,0,1,692,227.19l2.49-1.56q-263.42,5.3-526.86,10.26-74,1.43-148,2.9l2.52,1.56C17.35,198,14,155.61,11.93,113.19Q10.36,81.38,9.7,49.54q-.15-7.44-.25-14.9c0-2.67-1.34-5.24,2.2-7.23,1.87-1.06,9.73-1.32,12.25-1.64q24.53-3.16,49.3-5.49C204,7.87,338.06,9.19,470,7Q585.11,5,700.17,3.05l-2.44-1.53A1105.9,1105.9,0,0,1,686,123.86q-4.61,30.51-10.85,60.91c-2,9.95-2.3,21.61-6.87,31.26-1.87,3.95-.84,3.61-7.39,4.44-2.64.34-5.91.25-8.66.37l-30.28,1.26q-196.8,8.19-393.63,16.26c-75,3.09-150,6-224.94,9.35L6,249.87q6.78-22.2,13.57-44.39c.58-1.9-4.08-2.72-4.69-.8L.73,249c-.32,1,.75,2.23,2.64,2.16,173.08-6.74,346.05-14.51,519.08-21.68l147.08-6.1c1,0,2.33-.46,2.5-1.18A1192.26,1192.26,0,0,0,702.62,1.52c0-.8-1.15-1.54-2.45-1.52q-139,2.15-277.9,4.68c-90.29,1.53-180.91,2-270.94,6.85-48.75,2.65-97.28,6.84-145,13.53-1,.14-1.8.82-1.79,1.46.77,71.35,5.19,142.63,12.57,213.83.09.83,1.09,1.6,2.52,1.57Q283,237,546.44,231.59q74-1.46,148-2.85c1.43,0,2.38-.69,2.49-1.55A1123.31,1123.31,0,0,0,703.66,5.76c-.06-.85-1.14-1.64-2.59-1.62Q497.54,8,294.23,15.17C226.81,17.56,159.31,19.86,92,23.24c-14.08.7-28.14,1.57-42.12,2.81-8.24.73-16.45,1.59-24.6,2.66-6.42.83-14.59,1.39-19.77,4.21C-1.58,36.77.15,43.18.27,48.41q.39,16.26.84,32.5,2,71.78,6.1,143.51c.06,1.1,2.81,1.11,2.77,0Z"/></g></g></svg>