<svg height="60" width="120" xmlns="http://www.w3.org/2000/svg"><g transform="matrix(1.25 0 0 -1.25 0 60.000003)"><g fill="#362701" transform="matrix(.76278756 0 0 .76278756 14.925134 5.224252)"><path d="m55.977703 28.525346c-1.783668 0-3.112106-.875853-3.112106-2.983695 0-1.588202.875443-2.690664 3.015993-2.690664 1.814216 0 3.046541 1.068971 3.046541 2.756266 0 1.912116-1.102685 2.918093-2.950428 2.918093zm-3.566218-14.883234c-.422075-.518038-.842661-1.068412-.842661-1.717991 0-1.295878 1.652538-1.685842 3.922729-1.685842 1.880525 0 4.442033.131689 4.442033 1.880079 0 1.039169-1.232325 1.103505-2.789495 1.201144zm9.596714 14.785296c.582635-.745915 1.199543-1.783594 1.199543-3.274901 0-3.598665-2.820788-5.7058-6.904822-5.7058-1.03861 0-1.978873.129379-2.56188.291206l-1.070275-1.718029 3.176925-.194087c5.609539-.357404 8.91536-.519827 8.91536-4.830246 0-3.7293483-3.273784-5.8357378-8.91536-5.8357378-5.868073 0-8.105109 1.4915717-8.105109 4.0524058 0 1.459568.648573 2.235918 1.783296 3.307385-1.070276.452399-1.426413 1.2625-1.426413 2.138241 0 .713765.356137 1.362039.940635 1.978463.58338.615417 1.23158 1.232251 2.009793 1.945308-1.588463.777952-2.788378 2.463943-2.788378 4.86355 0 3.728044 2.464278 6.288435 7.423754 6.288435 1.394375 0 2.23778-.128336 2.983583-.324063h6.322559v-2.755111z"/><path d="m70.695198 34.318765c-1.848488 0-2.918018 1.070871-2.918018 2.919545 0 1.846364 1.06953 2.852192 2.918018 2.852192 1.880526 0 2.950428-1.005828 2.950428-2.852192 0-1.848674-1.069902-2.919545-2.950428-2.919545zm-4.183126-19.483704v2.559981l1.654028.226274c.454113.06579.51856.162273.51856.649765v9.531782c0 .355952-.09686.583827-.422075.680312l-1.750513.616536.35651 2.625173h6.711852v-13.453803c0-.519678.03129-.583976.518932-.649765l1.653656-.226274v-2.559981z"/><path d="m88.573973 16.091936c-1.394748-.680014-3.436951-1.296139-5.285811-1.296139-3.857909 0-5.316359 1.554711-5.316359 5.219911v8.493805c0 .194125 0 .324361-.260397.324361h-2.269073v2.885347c2.853943.325069 3.98792 1.751892 4.344431 5.285662h3.08044v-4.605387c0-.226125 0-.324063.259653-.324063h4.570928v-3.241559h-4.830581v-7.748189c0-1.913122.454485-2.65818 2.204253-2.65818.90897 0 1.848115.226274 2.626328.518337z"/></g><path d="m40.535825 24.600121-14.824336 14.823294c-.853017.853761-2.237632.853761-3.09184 0l-3.078169-3.078429 3.904736-3.904884c.907741.306479 1.948213.100992 2.671441-.622384.72699-.727884.931024-1.777223.616833-2.688019l3.763435-3.763286c.910498.313744 1.960992.111051 2.688019-.61728 1.016445-1.016147 1.016445-2.662687 0-3.679169-1.016594-1.016743-2.663134-1.016743-3.680175 0-.76428.764876-.953301 1.887827-.566206 2.829505l-3.509781 3.509892-.000298-9.236069c.247807-.122674.48168-.2864.688173-.491999 1.016147-1.016035 1.016147-2.662277 0-3.679914-1.016445-1.015998-2.66373-1.015998-3.679169 0-1.016296 1.017637-1.016296 2.663879 0 3.679914.251159.250712.541769.440478.851862.567659v9.321789c-.310093.126771-.600256.315196-.851862.567696-.769794.769198-.955201 1.899003-.560395 2.844295l-3.849117 3.849862-10.1645151-10.163927c-.8540506-.85447-.8540506-2.239085 0-3.092995l14.8241801-14.8233122c.853464-.8537604 2.237632-.8537604 3.092287 0l14.754897 14.7546182c.853762.854208.853762 2.239233 0 3.093143" fill="#f03c2e"/></g></svg>