<svg xmlns="http://www.w3.org/2000/svg" viewBox="0 0 324.08 184.96"><defs><style>.cls-1{fill:#272525;}</style></defs><title>speech</title><g id="Layer_2" data-name="Layer 2"><g id="Object"><path class="cls-1" d="M4.58,165.29q-1-44.86-1.68-89.74-.18-11-.32-21.94c-.1-7.1-1.14-14.89-.27-21.94.83-6.73,4.45-7.19,9.9-8.31,3.12-.64,6.26-1.19,9.4-1.67,7.78-1.18,15.62-1.89,23.46-2.48,59-4.45,118.17-7.5,177.28-10.11Q272,6.91,321.68,5.43l-1.19-1.19a1344.82,1344.82,0,0,1-3,163.09l1.15-1.14q-120.87,3.88-241.75,7.55-34,1-67.93,2.13L10.14,177Q6.87,130.25,5.48,83.37q-.74-23.43-1-46.88-.08-5.49-.12-11c0-2-.61-3.87,1-5.33.86-.78,4.47-1,5.63-1.21q11.25-2.32,22.62-4c60-9.15,121.53-8.17,182.08-9.81,35.2-1,70.4-1.84,105.6-2.89l-1.13-1.12c-.72,30.08-2.57,60.15-5.38,90.11q-2.11,22.47-5,44.86c-.94,7.33-1.06,15.91-3.15,23-.86,2.91-.39,2.66-3.4,3.28a32.25,32.25,0,0,1-4,.26l-13.9.93q-90.3,6-180.61,12C70.35,177.84,35.94,180,1.55,182.45L2.76,184Q5.87,167.69,9,151.35c.27-1.41-1.87-2-2.15-.6Q3.59,167.06.34,183.37A1.27,1.27,0,0,0,1.55,185c79.41-5,158.78-10.69,238.17-16l67.48-4.49a1.2,1.2,0,0,0,1.15-.87,1384,1384,0,0,0,14-162.51A1.14,1.14,0,0,0,321.27,0c-42.51,1.05-85,2.29-127.52,3.45-41.42,1.13-83,1.44-124.31,5a501.56,501.56,0,0,0-66.56,10,1.12,1.12,0,0,0-.82,1.07C2.41,72.08,4.44,124.59,7.83,177A1.17,1.17,0,0,0,9,178.18q120.88-3.62,241.75-7.61,34-1.06,67.93-2.1a1.17,1.17,0,0,0,1.14-1.14A1322.8,1322.8,0,0,0,322.86,4.24a1.2,1.2,0,0,0-1.18-1.19Q228.29,5.87,135,11.17c-30.93,1.76-61.9,3.46-92.79,6-6.46.52-12.91,1.15-19.32,2.07-3.78.53-7.55,1.17-11.29,1.95-2.94.62-6.69,1-9.07,3.11C-.72,27.08.07,31.81.13,35.66q.16,12,.38,23.93.93,52.88,2.8,105.7c0,.81,1.29.82,1.27,0Z"/></g></g></svg>